<svg width="1440" height="620" viewBox="0 0 1440 620" version="1.1" xmlns="http://www.w3.org/2000/svg" xmlns:xlink="http://www.w3.org/1999/xlink">
<g id="Canvas" fill="none">
<g id="Group">
<g id="Vector">
<path d="M 9.97567e-09 119.51C 330.711 -363.048 6.02511 788.883 449.205 529.045C 626.611 424.988 225.607 431.073 576.402 147.502C 927.197 -136.069 1439.33 268.598 1439.33 268.598" stroke-miterlimit="10" transform="translate(0 51.2676)" stroke="url(#paint0_linear)"/>
</g>
<g id="Vector_2">
<path d="M 9.97567e-09 120.043C 328.703 -359.471 13.3891 769.944 447.197 509.497C 621.255 404.223 238.326 418.827 581.757 144.384C 925.188 -130.059 1428.62 260.003 1440 253.918" stroke-miterlimit="10" transform="translate(0 56.8192)" stroke="url(#paint1_linear)"/>
</g>
<g id="Vector_3">
<path d="M 9.97567e-09 120.388C 326.695 -355.475 20.7532 750.816 444.519 489.152C 615.23 383.27 250.377 406.393 586.444 141.078C 922.51 -124.237 1416.57 250.612 1439.33 239.05" stroke-miterlimit="10" transform="translate(0 63.168)" stroke="url(#paint2_linear)"/>
</g>
<g id="Vector_4">
<path d="M 9.97567e-09 120.881C 324.017 -351.94 28.7866 733.053 442.51 469.564C 609.874 363.073 262.427 394.107 591.799 137.311C 921.172 -119.485 1405.86 241.368 1440 223.721" stroke-miterlimit="10" transform="translate(0 69.3691)" stroke="url(#paint3_linear)"/>
</g>
<g id="Vector_5">
<path d="M 9.97567e-09 121.232C 322.008 -347.938 36.1506 714.541 440.502 449.225C 603.849 342.126 275.146 381.071 597.155 133.403C 919.163 -114.265 1394.48 231.983 1440 208.859" stroke-miterlimit="10" transform="translate(0 75.7115)" stroke="url(#paint4_linear)"/>
</g>
<g id="Vector_6">
<path d="M 9.97567e-09 121.835C 320 -344.292 44.1841 696.279 438.494 429.747C 598.494 321.43 287.866 368.895 601.841 130.354C 915.816 -108.186 1383.1 222.85 1440 194.249" stroke-miterlimit="10" transform="translate(0 81.8026)" stroke="url(#paint5_linear)"/>
</g>
<g id="Vector_7">
<path d="M 9.97567e-09 122.525C 317.322 -340.56 51.5481 677.497 435.816 410.356C 592.469 301.43 300.586 356.197 607.197 126.785C 913.808 -102.628 1371.72 213.803 1440 179.118" stroke-miterlimit="10" transform="translate(0 87.8063)" stroke="url(#paint6_linear)"/>
</g>
<g id="Vector_8">
<path d="M 9.97567e-09 122.974C 315.314 -336.459 58.9122 659.081 433.808 390.115C 587.113 280.581 312.636 343.867 611.883 123.583C 911.13 -96.702 1360.33 204.516 1440 164.354" stroke-miterlimit="10" transform="translate(0 94.051)" stroke="url(#paint7_linear)"/>
</g>
<g id="Vector_9">
<path d="M 9.97567e-09 123.741C 313.305 -332.65 66.2762 640.376 431.799 370.801C 581.088 260.05 325.356 331.247 617.239 120.09C 909.121 -91.0671 1348.95 195.546 1440 149.299" stroke-miterlimit="10" transform="translate(0 99.978)" stroke="url(#paint8_linear)"/>
</g>
<g id="Vector_10">
<path d="M 9.97567e-09 124.261C 310.628 -328.479 73.6402 622.032 429.791 351.24C 575.732 239.272 338.075 318.988 621.925 116.35C 905.774 -86.2871 1337.57 186.33 1439.33 133.998" stroke-miterlimit="10" transform="translate(0 106.151)" stroke="url(#paint9_linear)"/>
</g>
<g id="Vector_11">
<path d="M 9.97567e-09 124.821C 308.619 -324.267 81.6736 603.728 427.782 331.719C 570.377 219.751 350.795 307.378 627.28 113.868C 903.766 -79.6417 1326.19 177.763 1440 119.953" stroke-miterlimit="10" transform="translate(0 111.676)" stroke="url(#paint10_linear)"/>
</g>
<g id="Vector_12">
<path d="M 9.97567e-09 125.726C 306.611 -320.32 89.0377 585.159 425.105 311.933C 563.682 199.357 362.845 294.895 631.967 110.513C 901.088 -73.8692 1314.81 168.931 1439.33 105.036" stroke-miterlimit="10" transform="translate(0 117.466)" stroke="url(#paint11_linear)"/>
</g>
<g id="Vector_13">
<path d="M 9.97567e-09 126.683C 303.933 -316.32 96.4017 566.644 423.096 292.201C 558.326 178.407 375.565 282.465 637.322 107.21C 899.079 -68.0437 1303.43 159.543 1440 90.1718" stroke-miterlimit="10" transform="translate(0 123.202)" stroke="url(#paint12_linear)"/>
</g>
<g id="Vector_14">
<path d="M 9.97567e-09 127.388C 301.925 -311.964 103.766 548.485 421.088 272.825C 552.971 158.423 387.615 270.39 642.678 104.264C 897.741 -61.8622 1292.72 151.12 1440 75.6636" stroke-miterlimit="10" transform="translate(0 129.191)" stroke="url(#paint13_linear)"/>
</g>
<g id="Vector_15">
<path d="M 9.97567e-09 128.453C 299.916 -307.857 111.13 530.077 419.08 253.808C 547.615 138.189 400.335 258.676 647.364 101.678C 894.393 -55.3206 1280.67 143.057 1440 61.5154" stroke-miterlimit="10" transform="translate(0 134.82)" stroke="url(#paint14_linear)"/>
</g>
<g id="Vector_16">
<path d="M 9.97567e-09 129.589C 297.239 -303.679 118.494 511.74 416.402 234.254C 540.921 118.027 412.385 246.425 652.05 98.554C 891.716 -49.3167 1269.29 133.848 1439.33 46.8296" stroke-miterlimit="10" transform="translate(0 140.378)" stroke="url(#paint15_linear)"/>
</g>
<g id="Vector_17">
<path d="M 9.97567e-09 130.542C 295.23 -299.074 126.527 493.221 414.393 215.127C 535.565 98.2909 425.105 234.6 657.406 95.8568C 889.707 -42.8861 1257.91 125.674 1440 32.5706" stroke-miterlimit="10" transform="translate(0 146.118)" stroke="url(#paint16_linear)"/>
</g>
<g id="Vector_18">
<path d="M 9.97567e-09 131.75C 292.552 -294.824 133.891 475.564 412.385 195.644C 530.209 77.5911 437.824 222.419 662.761 92.1957C 887.699 -38.0279 1247.2 116.537 1440 17.956" stroke-miterlimit="10" transform="translate(0 151.604)" stroke="url(#paint17_linear)"/>
</g>
<g id="Vector_19">
<path d="M 9.97567e-09 132.852C 290.544 -290.071 141.255 457.193 410.377 176.665C 524.184 58.0034 450.544 211.351 667.448 89.6465C 884.352 -32.0577 1235.82 107.902 1439.33 3.84503" stroke-miterlimit="10" transform="translate(0 156.588)" stroke="url(#paint18_linear)"/>
</g>
<g id="Vector_20">
<path d="M 9.97567e-09 144.22C 288.536 -275.66 148.619 449.089 407.699 167.952C 518.159 48.0732 462.594 209.94 672.134 97.3634C 881.674 -15.213 1223.77 110.142 1439.33 -4.64265e-06" stroke-miterlimit="10" transform="translate(0 151.913)" stroke="url(#paint19_linear)"/>
</g>
<g id="Vector_21">
<path d="M 9.97567e-09 160.041C 285.858 -256.187 155.983 445.438 405.69 163.084C 512.803 42.5965 475.314 212.374 677.49 108.925C 879.665 5.4767 1213.05 115.619 1439.33 -4.64265e-06" stroke-miterlimit="10" transform="translate(0 142.785)" stroke="url(#paint20_linear)"/>
</g>
<g id="Vector_22">
<path d="M 9.97567e-09 175.254C 283.849 -237.932 162.678 441.786 403.682 158.216C 506.778 36.5113 488.033 214.808 682.845 120.487C 877.657 26.1664 1201.67 121.704 1440 -2.32132e-06" stroke-miterlimit="10" transform="translate(0 134.266)" stroke="url(#paint21_linear)"/>
</g>
<g id="Vector_23">
<path d="M 9.97567e-09 190.467C 281.841 -219.068 170.042 437.527 401.674 153.347C 501.423 31.0346 500.753 217.242 688.201 132.049C 875.649 46.8562 1190.96 127.789 1440 0" stroke-miterlimit="10" transform="translate(0 125.747)" stroke="url(#paint22_linear)"/>
</g>
<g id="Vector_24">
<path d="M 9.97567e-09 206.289C 279.163 -200.204 177.406 433.876 398.996 148.479C 494.728 24.9494 512.134 219.676 692.218 143.611C 872.301 67.5459 1178.24 133.266 1439.33 0" stroke-miterlimit="10" transform="translate(0 116.619)" stroke="url(#paint23_linear)"/>
</g>
<g id="Vector_25">
<path d="M 9.97567e-09 222.11C 277.155 -181.339 184.77 430.225 396.987 144.22C 489.372 19.4727 525.523 222.11 698.243 155.173C 870.962 88.2356 1168.2 139.351 1440 0" stroke-miterlimit="10" transform="translate(0 107.491)" stroke="url(#paint24_linear)"/>
</g>
<g id="Vector_26">
<path d="M 9.97567e-09 237.323C 275.146 -162.475 192.134 425.965 394.979 138.743C 484.017 13.3875 537.573 224.544 702.929 166.735C 868.284 108.925 1156.15 144.828 1440 2.32132e-06" stroke-miterlimit="10" transform="translate(0 98.972)" stroke="url(#paint25_linear)"/>
</g>
<g id="Vector_27">
<path d="M 9.97567e-09 253.145C 273.138 -143.611 198.828 421.705 392.971 134.483C 477.992 8.5193 550.293 227.587 708.285 178.297C 866.276 129.007 1145.44 150.913 1440 2.32132e-06" stroke-miterlimit="10" transform="translate(0 89.8442)" stroke="url(#paint26_linear)"/>
</g>
<g id="Vector_28">
<path d="M 9.97567e-09 268.358C 270.46 -124.747 206.192 418.054 390.962 129.615C 472.636 2.43409 563.013 230.021 713.64 189.859C 864.268 149.696 1134.06 156.999 1440 2.32132e-06" stroke-miterlimit="10" transform="translate(0 80.7164)" stroke="url(#paint27_linear)"/>
</g>
<g id="Vector_29">
<path d="M 9.97567e-09 283.571C 268.452 -105.883 213.556 413.795 388.285 124.747C 465.941 -3.65113 575.063 232.455 718.326 201.421C 861.59 170.386 1122.68 162.475 1440 -1.16066e-06" stroke-miterlimit="10" transform="translate(0 72.197)" stroke="url(#paint28_linear)"/>
</g>
<g id="Vector_30">
<path d="M 9.97567e-09 298.784C 266.444 -87.6271 220.251 409.535 386.276 119.27C 459.916 -9.73634 587.782 234.281 723.013 212.374C 858.243 190.467 1110.63 167.952 1439.33 1.16066e-06" stroke-miterlimit="10" transform="translate(0 63.6776)" stroke="url(#paint29_linear)"/>
</g>
<g id="Vector_31">
<path d="M 9.97567e-09 314.606C 263.766 -68.7629 227.615 405.275 384.268 114.402C 454.561 -15.8215 600.502 236.715 728.368 223.936C 856.234 211.157 1099.92 173.429 1440 1.16066e-06" stroke-miterlimit="10" transform="translate(0 54.5497)" stroke="url(#paint30_linear)"/>
</g>
<g id="Vector_32">
<path d="M 9.97567e-09 329.819C 261.757 -49.8988 234.31 401.016 382.259 109.534C 448.536 -21.2982 613.222 239.149 733.724 235.498C 854.226 231.847 1088.54 179.514 1440 5.80331e-07" stroke-miterlimit="10" transform="translate(0 46.0306)" stroke="url(#paint31_linear)"/>
</g>
<g id="Vector_33">
<path d="M 9.97567e-09 345.032C 259.08 -31.6431 241.004 396.756 379.582 104.666C 442.51 -27.3835 625.272 241.583 737.741 247.06C 850.209 252.536 1076.49 185.599 1439.33 0" stroke-miterlimit="10" transform="translate(0 37.5113)" stroke="url(#paint32_linear)"/>
</g>
<g id="Vector_34">
<path d="M 9.97567e-09 360.853C 257.071 -12.779 248.368 393.105 377.573 99.7975C 436.485 -32.8601 637.992 244.626 743.766 258.622C 849.54 272.618 1065.77 191.076 1440 0" stroke-miterlimit="10" transform="translate(0 28.3834)" stroke="url(#paint33_linear)"/>
</g>
<g id="Vector_35">
<path d="M 9.97567e-09 376.066C 255.063 6.08524 255.063 388.845 375.565 94.9293C 430.46 -38.9454 650.042 247.06 748.452 270.183C 846.862 293.307 1054.39 197.161 1440 -5.80331e-07" stroke-miterlimit="10" transform="translate(0 19.864)" stroke="url(#paint34_linear)"/>
</g>
<g id="Vector_36">
<path d="M 9.97567e-09 391.279C 252.385 24.3409 261.088 384.585 373.556 90.0612C 424.435 -45.0306 662.761 249.494 753.807 281.745C 844.854 313.997 1043.01 202.638 1440 2.90166e-07" stroke-miterlimit="10" transform="translate(0 11.345)" stroke="url(#paint35_linear)"/>
</g>
<g id="Vector_37">
<path d="M 9.97567e-09 407.709C 250.377 44.4221 268.452 381.543 371.548 85.8015C 419.079 -49.8987 675.481 252.536 759.163 293.307C 842.845 334.078 1032.3 208.723 1440 0" stroke-miterlimit="10" transform="translate(0 1)" stroke="url(#paint36_linear)"/>
</g>
</g>
</g>
<defs>

<linearGradient id="paint0_linear" x2="1" gradientUnits="userSpaceOnUse" gradientTransform="matrix(-57.2722 -584.969 589.154 -56.729 458.09 556.969)">
<stop stop-color="#02B2C4"/>
<stop offset="0.9946" stop-color="#A5D5A1"/>
</linearGradient>
<linearGradient id="paint1_linear" x2="1" gradientUnits="userSpaceOnUse" gradientTransform="matrix(-55.4123 -565.971 570.021 -54.8866 466.388 537.699)">
<stop stop-color="#02B2C4"/>
<stop offset="0.9946" stop-color="#A5D5A1"/>
</linearGradient>
<linearGradient id="paint2_linear" x2="1" gradientUnits="userSpaceOnUse" gradientTransform="matrix(-53.5584 -547.036 550.951 -53.0503 474.782 517.662)">
<stop stop-color="#02B2C4"/>
<stop offset="0.9946" stop-color="#A5D5A1"/>
</linearGradient>
<linearGradient id="paint3_linear" x2="1" gradientUnits="userSpaceOnUse" gradientTransform="matrix(-51.7263 -528.327 532.107 -51.2356 483.088 498.058)">
<stop stop-color="#02B2C4"/>
<stop offset="0.9946" stop-color="#A5D5A1"/>
</linearGradient>
<linearGradient id="paint4_linear" x2="1" gradientUnits="userSpaceOnUse" gradientTransform="matrix(-49.8912 -509.577 513.224 -49.4179 491.404 478.195)">
<stop stop-color="#02B2C4"/>
<stop offset="0.9946" stop-color="#A5D5A1"/>
</linearGradient>
<linearGradient id="paint5_linear" x2="1" gradientUnits="userSpaceOnUse" gradientTransform="matrix(-48.0621 -490.901 494.414 -47.6062 499.686 458.629)">
<stop stop-color="#02B2C4"/>
<stop offset="0.9946" stop-color="#A5D5A1"/>
</linearGradient>
<linearGradient id="paint6_linear" x2="1" gradientUnits="userSpaceOnUse" gradientTransform="matrix(-46.2409 -472.3 475.679 -45.8023 507.936 439.2)">
<stop stop-color="#02B2C4"/>
<stop offset="0.9946" stop-color="#A5D5A1"/>
</linearGradient>
<linearGradient id="paint7_linear" x2="1" gradientUnits="userSpaceOnUse" gradientTransform="matrix(-44.4276 -453.779 457.026 -44.0062 516.15 419.581)">
<stop stop-color="#02B2C4"/>
<stop offset="0.9946" stop-color="#A5D5A1"/>
</linearGradient>
<linearGradient id="paint8_linear" x2="1" gradientUnits="userSpaceOnUse" gradientTransform="matrix(-42.6228 -435.343 438.458 -42.2185 524.326 400.334)">
<stop stop-color="#02B2C4"/>
<stop offset="0.9946" stop-color="#A5D5A1"/>
</linearGradient>
<linearGradient id="paint9_linear" x2="1" gradientUnits="userSpaceOnUse" gradientTransform="matrix(-40.8264 -416.995 419.979 -40.4392 532.462 380.898)">
<stop stop-color="#02B2C4"/>
<stop offset="0.9946" stop-color="#A5D5A1"/>
</linearGradient>
<linearGradient id="paint10_linear" x2="1" gradientUnits="userSpaceOnUse" gradientTransform="matrix(-39.0392 -398.744 401.597 -38.6689 540.555 362.171)">
<stop stop-color="#02B2C4"/>
<stop offset="0.9946" stop-color="#A5D5A1"/>
</linearGradient>
<linearGradient id="paint11_linear" x2="1" gradientUnits="userSpaceOnUse" gradientTransform="matrix(-37.2628 -380.593 383.316 -36.9093 548.604 343.243)">
<stop stop-color="#02B2C4"/>
<stop offset="0.9946" stop-color="#A5D5A1"/>
</linearGradient>
<linearGradient id="paint12_linear" x2="1" gradientUnits="userSpaceOnUse" gradientTransform="matrix(-35.4962 -362.549 365.143 -35.1594 556.605 324.436)">
<stop stop-color="#02B2C4"/>
<stop offset="0.9946" stop-color="#A5D5A1"/>
</linearGradient>
<linearGradient id="paint13_linear" x2="1" gradientUnits="userSpaceOnUse" gradientTransform="matrix(-33.7404 -344.62 347.086 -33.4203 564.554 305.448)">
<stop stop-color="#02B2C4"/>
<stop offset="0.9946" stop-color="#A5D5A1"/>
</linearGradient>
<linearGradient id="paint14_linear" x2="1" gradientUnits="userSpaceOnUse" gradientTransform="matrix(-31.9974 -326.813 329.152 -31.6938 572.449 286.898)">
<stop stop-color="#02B2C4"/>
<stop offset="0.9946" stop-color="#A5D5A1"/>
</linearGradient>
<linearGradient id="paint15_linear" x2="1" gradientUnits="userSpaceOnUse" gradientTransform="matrix(-30.2665 -309.138 311.35 -29.9794 580.285 268.499)">
<stop stop-color="#02B2C4"/>
<stop offset="0.9946" stop-color="#A5D5A1"/>
</linearGradient>
<linearGradient id="paint16_linear" x2="1" gradientUnits="userSpaceOnUse" gradientTransform="matrix(-28.5495 -291.603 293.689 -28.2787 588.059 250.007)">
<stop stop-color="#02B2C4"/>
<stop offset="0.9946" stop-color="#A5D5A1"/>
</linearGradient>
<linearGradient id="paint17_linear" x2="1" gradientUnits="userSpaceOnUse" gradientTransform="matrix(-26.8482 -274.218 276.181 -26.5936 595.765 231.861)">
<stop stop-color="#02B2C4"/>
<stop offset="0.9946" stop-color="#A5D5A1"/>
</linearGradient>
<linearGradient id="paint18_linear" x2="1" gradientUnits="userSpaceOnUse" gradientTransform="matrix(-25.1616 -256.998 258.837 -24.9229 603.397 214.32)">
<stop stop-color="#02B2C4"/>
<stop offset="0.9946" stop-color="#A5D5A1"/>
</linearGradient>
<linearGradient id="paint19_linear" x2="1" gradientUnits="userSpaceOnUse" gradientTransform="matrix(-23.4931 -239.954 241.671 -23.2702 610.951 206.547)">
<stop stop-color="#02B2C4"/>
<stop offset="0.9946" stop-color="#A5D5A1"/>
</linearGradient>
<linearGradient id="paint20_linear" x2="1" gradientUnits="userSpaceOnUse" gradientTransform="matrix(-21.8427 -223.1 224.697 -21.6355 618.419 203.344)">
<stop stop-color="#02B2C4"/>
<stop offset="0.9946" stop-color="#A5D5A1"/>
</linearGradient>
<linearGradient id="paint21_linear" x2="1" gradientUnits="userSpaceOnUse" gradientTransform="matrix(-20.2136 -206.455 207.932 -20.0218 625.795 199.662)">
<stop stop-color="#02B2C4"/>
<stop offset="0.9946" stop-color="#A5D5A1"/>
</linearGradient>
<linearGradient id="paint22_linear" x2="1" gradientUnits="userSpaceOnUse" gradientTransform="matrix(-18.6063 -190.036 191.396 -18.4298 633.068 196.119)">
<stop stop-color="#02B2C4"/>
<stop offset="0.9946" stop-color="#A5D5A1"/>
</linearGradient>
<linearGradient id="paint23_linear" x2="1" gradientUnits="userSpaceOnUse" gradientTransform="matrix(-17.0226 -173.866 175.11 -16.8611 640.23 193.337)">
<stop stop-color="#02B2C4"/>
<stop offset="0.9946" stop-color="#A5D5A1"/>
</linearGradient>
<linearGradient id="paint24_linear" x2="1" gradientUnits="userSpaceOnUse" gradientTransform="matrix(-15.4661 -157.969 159.099 -15.3194 647.27 190.724)">
<stop stop-color="#02B2C4"/>
<stop offset="0.9946" stop-color="#A5D5A1"/>
</linearGradient>
<linearGradient id="paint25_linear" x2="1" gradientUnits="userSpaceOnUse" gradientTransform="matrix(-13.9394 -142.373 143.391 -13.8072 654.175 187.687)">
<stop stop-color="#02B2C4"/>
<stop offset="0.9946" stop-color="#A5D5A1"/>
</linearGradient>
<linearGradient id="paint26_linear" x2="1" gradientUnits="userSpaceOnUse" gradientTransform="matrix(-12.8658 -131.41 132.35 -12.7438 659.186 189.971)">
<stop stop-color="#02B2C4"/>
<stop offset="0.9946" stop-color="#A5D5A1"/>
</linearGradient>
<linearGradient id="paint27_linear" x2="1" gradientUnits="userSpaceOnUse" gradientTransform="matrix(-13.2366 -135.198 136.165 -13.1111 658.029 205.836)">
<stop stop-color="#02B2C4"/>
<stop offset="0.9946" stop-color="#A5D5A1"/>
</linearGradient>
<linearGradient id="paint28_linear" x2="1" gradientUnits="userSpaceOnUse" gradientTransform="matrix(-15.1808 -155.056 156.165 -15.0368 648.778 221.87)">
<stop stop-color="#02B2C4"/>
<stop offset="0.9946" stop-color="#A5D5A1"/>
</linearGradient>
<linearGradient id="paint29_linear" x2="1" gradientUnits="userSpaceOnUse" gradientTransform="matrix(-17.1298 -174.96 176.212 -16.9673 639.505 237.906)">
<stop stop-color="#02B2C4"/>
<stop offset="0.9946" stop-color="#A5D5A1"/>
</linearGradient>
<linearGradient id="paint30_linear" x2="1" gradientUnits="userSpaceOnUse" gradientTransform="matrix(-19.0825 -194.905 196.299 -18.9015 630.211 254.554)">
<stop stop-color="#02B2C4"/>
<stop offset="0.9946" stop-color="#A5D5A1"/>
</linearGradient>
<linearGradient id="paint31_linear" x2="1" gradientUnits="userSpaceOnUse" gradientTransform="matrix(-21.0388 -214.886 216.424 -20.8392 620.899 270.594)">
<stop stop-color="#02B2C4"/>
<stop offset="0.9946" stop-color="#A5D5A1"/>
</linearGradient>
<linearGradient id="paint32_linear" x2="1" gradientUnits="userSpaceOnUse" gradientTransform="matrix(-22.9981 -234.899 236.579 -22.7799 611.571 286.636)">
<stop stop-color="#02B2C4"/>
<stop offset="0.9946" stop-color="#A5D5A1"/>
</linearGradient>
<linearGradient id="paint33_linear" x2="1" gradientUnits="userSpaceOnUse" gradientTransform="matrix(-24.9604 -254.941 256.765 -24.7237 602.228 303.288)">
<stop stop-color="#02B2C4"/>
<stop offset="0.9946" stop-color="#A5D5A1"/>
</linearGradient>
<linearGradient id="paint34_linear" x2="1" gradientUnits="userSpaceOnUse" gradientTransform="matrix(-26.9252 -275.007 276.974 -26.6698 592.873 319.332)">
<stop stop-color="#02B2C4"/>
<stop offset="0.9946" stop-color="#A5D5A1"/>
</linearGradient>
<linearGradient id="paint35_linear" x2="1" gradientUnits="userSpaceOnUse" gradientTransform="matrix(-28.8954 -295.13 297.242 -28.6213 583.49 335.379)">
<stop stop-color="#02B2C4"/>
<stop offset="0.9946" stop-color="#A5D5A1"/>
</linearGradient>
<linearGradient id="paint36_linear" x2="1" gradientUnits="userSpaceOnUse" gradientTransform="matrix(-30.8602 -315.204 317.459 -30.5675 574.131 353.249)">
<stop stop-color="#02B2C4"/>
<stop offset="0.9946" stop-color="#A5D5A1"/>
</linearGradient>

</defs>
</svg>

